<?xml version="1.0" encoding="utf-8"?>
<!-- Generator: Adobe Illustrator 26.0.3, SVG Export Plug-In . SVG Version: 6.00 Build 0)  -->
<svg version="1.1" id="Camada_1" xmlns="http://www.w3.org/2000/svg" xmlns:xlink="http://www.w3.org/1999/xlink" x="0px" y="0px"
	 viewBox="0 0 150.4 32.5" style="enable-background:new 0 0 150.4 32.5;" xml:space="preserve">
<style type="text/css">
	.st0{fill:#9D9D9C;}
	.st1{fill:url(#SVGID_1_);}
	.st2{fill:url(#SVGID_00000040554318825899620090000011997713852735131051_);}
	.st3{fill:url(#SVGID_00000155831255173511819540000014045166229644040601_);}
	.st4{fill:url(#SVGID_00000137828810805094554700000012414742841550837909_);}
	.st5{fill:url(#SVGID_00000171680775244949173280000009942002871976870565_);}
	.st6{fill:url(#SVGID_00000127757034963775138140000013274836030247898538_);}
	.st7{fill:url(#SVGID_00000082370003257863676700000015046693616262164377_);}
	.st8{opacity:0.1;}
	.st9{fill:#FFFFFF;}
	.st10{opacity:0.1;fill:#FFFFFF;enable-background:new    ;}
	.st11{fill:url(#SVGID_00000025433175882776394080000007635124645265240231_);}
	.st12{fill:url(#SVGID_00000069382010365426275320000018000638533940720015_);}
	.st13{fill:url(#SVGID_00000094611843930926273180000009162918659395366847_);}
	.st14{fill:url(#SVGID_00000038370679184337812540000016909166254232783245_);}
	.st15{fill:#00592E;}
	.st16{fill:#008739;}
	.st17{fill:url(#SVGID_00000150808015996641059420000006936686015278689924_);}
	.st18{fill:#008D36;}
	.st19{fill:url(#SVGID_00000037675782163780038790000014509743577339423381_);}
	.st20{opacity:0.2;}
	.st21{fill:url(#SVGID_00000089572715473075113190000004118954562732532887_);}
	.st22{opacity:0.2;fill:#FFFFFF;enable-background:new    ;}
	.st23{opacity:8.000000e-02;fill:#FFFFFF;enable-background:new    ;}
</style>
<g>
	<g>
		<g>
			<g>
				<path class="st0" d="M50.2,19.6h4.3c0,0.8,0.4,1.4,1,1.8S57,22,58,22c0.8,0,1.4-0.1,2-0.4c0.5-0.3,0.8-0.7,0.8-1.1
					c0-0.7-0.9-1.2-2.7-1.6c-0.8-0.2-1.6-0.4-2-0.5c-2.2-0.6-3.5-1-4.3-1.7C51,16,50.5,15,50.5,13.8c0-1.5,0.6-2.8,1.8-3.7
					c1.3-0.9,2.9-1.4,5-1.4c2.2,0,4,0.5,5.3,1.4c1.2,1,1.9,2.3,2,3.9h-2.7c-0.8,0-1.4-0.3-1.8-1c-0.1-0.1-0.2-0.2-0.3-0.3
					s-0.2-0.1-0.2-0.2c-0.5-0.4-1.2-0.5-2.1-0.5c-0.8,0-1.5,0.1-1.9,0.4C55.2,12.6,55,13,55,13.5c0,0.6,0.9,1.2,3.1,1.6
					c0.3,0.1,1.2,0.3,1.5,0.3c2.2,0.5,3.6,1,4.5,1.7c0.8,0.7,1.2,1.7,1.2,2.9c0,1.7-0.7,3.1-2,4c-1.3,0.9-3.2,1.3-5.7,1.3
					c-2.4,0-4.2-0.5-5.4-1.4s-1.8-2.2-1.8-4v-0.3H50.2z"/>
				<path class="st0" d="M57.5,25.3c-2.5,0-4.3-0.5-5.5-1.4c-1.3-0.9-1.9-2.3-1.9-4.1v-0.2c0-0.1,0.1-0.2,0.2-0.2h4.3
					c0.1,0,0.2,0.1,0.2,0.2c0,0.7,0.3,1.3,0.9,1.7c0.6,0.4,1.4,0.6,2.4,0.6c0.7,0,1.4-0.1,1.9-0.4c0.4-0.2,0.7-0.6,0.7-1
					c0-0.6-0.8-1-2.5-1.4c-0.3-0.1-0.7-0.2-1-0.2c-0.4-0.1-0.7-0.2-1-0.2c-2.1-0.6-3.5-1-4.3-1.8c-0.9-0.7-1.3-1.7-1.3-3
					c0-1.5,0.6-2.8,1.9-3.9c1.3-0.9,3-1.4,5.1-1.4c2.2,0,4,0.5,5.4,1.4c1.3,1,2,2.4,2,4v0.1l-0.1,0.1h-2.7c-0.9,0-1.5-0.4-2-1.1
					L60.1,13L60,12.9l-0.1-0.1l-0.1-0.1c-0.5-0.3-1.1-0.5-2-0.5c-0.8,0-1.4,0.1-1.8,0.3c-0.3,0.2-0.5,0.5-0.5,0.9c0,0.6,1,1,3,1.4
					l0,0c0.2,0.1,1.1,0.3,1.4,0.3H60c2.1,0.5,3.6,1,4.5,1.7c0.8,0.7,1.3,1.7,1.3,3c0,1.8-0.7,3.2-2.1,4.2
					C62,24.9,60.1,25.3,57.5,25.3z M50.4,19.8L50.4,19.8c0,1.7,0.6,3,1.8,3.9s2.9,1.3,5.3,1.3c2.5,0,4.4-0.4,5.6-1.3
					c1.3-0.9,2-2.2,2-3.9c0-1.1-0.4-2.1-1.2-2.7c-0.8-0.7-2.3-1.2-4.4-1.7h-0.1c-0.5-0.1-1.2-0.3-1.4-0.3c-2.2-0.4-3.3-1-3.3-1.8
					c0-0.5,0.2-0.9,0.7-1.2s1.1-0.4,2-0.4s1.7,0.2,2.2,0.6l0,0l0.1,0.1l0.1,0.1c0,0,0.1,0.1,0.1,0.2l0.1,0.1l0,0
					c0.4,0.6,0.9,0.9,1.7,0.9h2.5c-0.1-1.5-0.8-2.7-1.9-3.6c-1.3-0.9-3-1.3-5.2-1.3c-2,0-3.6,0.4-4.9,1.3c-1.2,0.9-1.8,2.2-1.8,3.6
					c0,1.1,0.4,2.1,1.2,2.7c0.7,0.7,1.9,1.1,4.2,1.7c0.2,0.1,0.6,0.1,1,0.2c0.3,0.1,0.7,0.2,1,0.2c1.5,0.4,2.8,0.8,2.8,1.8
					c0,0.5-0.3,1-0.9,1.3c-0.6,0.3-1.3,0.4-2.1,0.4c-1.1,0-2-0.2-2.6-0.6s-0.9-1-1-1.8h-3.6V19.8z"/>
			</g>
			<g>
				<path class="st0" d="M76.8,24.2C75.9,24.6,75,24.9,74,25c-1,0.1-1.9,0.1-2.6,0.1c-1.5,0-2.9-0.4-4-1.2c-1.1-0.8-1.7-2-1.7-3.8
					c0-1.7,0.5-2.9,1.6-3.6c1-0.7,2.4-1.2,4-1.4c0.2,0,0.5,0,0.8-0.1s0.6-0.1,1-0.1c1.9-0.2,2.8-0.8,2.8-1.5c0-0.6-0.3-1-1-1.2
					s-1.3-0.3-1.8-0.3c-0.6,0-1.1,0.1-1.6,0.2c-0.5,0.2-0.8,0.5-1,0.9H66c0.2-1.2,0.8-2.2,1.8-3c1.1-0.9,2.8-1.4,4.9-1.4
					c2.4,0,4.2,0.4,5.3,1.1c1.2,0.8,1.8,1.9,1.8,3.3v5.4c0,1.6-0.3,2.8-0.9,3.7C78.4,23.2,77.6,23.8,76.8,24.2z M75.8,16.9
					c-0.6,0.3-1.4,0.5-2.5,0.8L71.8,18c-0.8,0.2-1.3,0.5-1.7,0.8c-0.3,0.4-0.4,0.9-0.4,1.3c0,0.6,0.2,1.1,0.6,1.4S71.2,22,72,22
					c1.2,0,2.1-0.3,2.8-1c0.7-0.6,1-1.5,1-2.6V16.9z"/>
				<path class="st0" d="M71.3,25.3c-1.6,0-2.9-0.4-4.1-1.2c-1.2-0.8-1.8-2.1-1.8-4c0-1.7,0.5-3,1.6-3.7c1.1-0.7,2.4-1.2,4.1-1.5
					l0,0c0.2,0,0.4,0,0.7-0.1c0.3-0.1,0.6-0.1,1-0.2c1.8-0.2,2.6-0.7,2.6-1.4c0-0.5-0.3-0.8-0.9-1c-1.3-0.4-2.4-0.3-3.3,0
					c-0.4,0.1-0.7,0.4-0.9,0.8c0,0.1-0.1,0.1-0.2,0.1H66c-0.1,0-0.1,0-0.1-0.1v-0.1c0.2-1.3,0.8-2.3,1.8-3.1c1.2-0.9,2.9-1.4,5-1.4
					c2.4,0,4.2,0.4,5.4,1.2c1.3,0.8,1.9,2,1.9,3.5v5.4c0,1.6-0.3,2.9-1,3.8c-0.6,0.9-1.4,1.6-2.3,2C76,24.8,75,25.1,74,25.2
					C73,25.3,72.1,25.3,71.3,25.3z M71.1,15.3c-1.6,0.2-2.9,0.7-3.9,1.4s-1.5,1.8-1.5,3.4c0,1.7,0.6,3,1.6,3.7
					c1.1,0.7,2.4,1.1,3.9,1.1c0.7,0,1.6,0,2.6-0.1s1.9-0.4,2.8-0.8c0.8-0.4,1.5-1,2.1-1.9s0.9-2.1,0.9-3.6v-5.4
					c0-1.4-0.6-2.4-1.8-3.2c-1.2-0.7-2.9-1.1-5.2-1.1c-2.1,0-3.7,0.4-4.8,1.3c-0.9,0.7-1.5,1.6-1.7,2.7H70c0.2-0.4,0.6-0.7,1.1-0.9
					c0.9-0.3,2.1-0.4,3.5,0c0.7,0.2,1.1,0.7,1.1,1.3c0,0.9-1,1.5-3,1.7c-0.4,0-0.7,0.1-1,0.1C71.6,15.3,71.4,15.3,71.1,15.3z
					 M71.9,22.1c-0.8,0-1.4-0.2-1.8-0.5c-0.4-0.4-0.6-0.9-0.6-1.5c0-0.5,0.2-0.9,0.5-1.4l0,0c0.4-0.3,0.9-0.6,1.7-0.8l1.5-0.3
					c1-0.2,1.9-0.5,2.4-0.8c0.1,0,0.1,0,0.2,0s0.1,0.1,0.1,0.1v1.5c0,1.1-0.4,2.1-1.1,2.7C74.2,21.8,73.2,22.1,71.9,22.1z
					 M70.3,18.8c-0.3,0.4-0.4,0.8-0.4,1.2c0,0.6,0.2,1,0.5,1.3s0.9,0.4,1.5,0.4c1.1,0,2-0.3,2.7-0.9c0.6-0.6,1-1.4,1-2.5v-1.2
					c-0.6,0.2-1.3,0.5-2.3,0.7l-1.5,0.3C71.1,18.3,70.6,18.6,70.3,18.8z"/>
			</g>
			<g>
				<path class="st0" d="M80.5,23V8.6c0-1.4,0.4-2.5,1.2-3.2c0.8-0.7,2-1,3.8-1c0.4,0,0.7,0,1,0c0.5,0,0.8,0,1.1,0v1.7
					c0,0,0,0.3-0.1,0.6c-0.1,0.2-0.2,0.3-0.4,0.5c-0.2,0.2-0.5,0.4-0.8,0.5c-0.1,0-0.3,0.1-0.3,0.1c-0.3,0-0.6,0.1-0.8,0.2
					c-0.2,0.2-0.3,0.5-0.3,1v1h2.7v0.9c0,0.6-0.2,1.1-0.6,1.5S86.1,13,85.5,13h-0.6v12h-2.1c0,0-0.2,0-0.4,0c-0.2,0-0.4-0.1-0.6-0.2
					c-0.3-0.1-0.6-0.3-0.8-0.6C80.5,23.7,80.5,23,80.5,23z"/>
				<path class="st0" d="M82.7,25.2c-0.1,0-0.2,0-0.4,0c-0.2,0-0.4-0.1-0.6-0.2c-0.3-0.1-0.7-0.4-0.9-0.6c-0.5-0.6-0.5-1.4-0.5-1.4
					V8.6c0-1.5,0.4-2.6,1.3-3.3c0.8-0.7,2.1-1.1,3.9-1.1c0.2,0,0.4,0,0.6,0s0.3,0,0.5,0c0.5,0,0.8,0,1.1,0h0.1l0.1,0.1V6
					c0,0.2-0.1,0.5-0.1,0.7c-0.1,0.2-0.2,0.4-0.4,0.6c-0.3,0.3-0.7,0.5-0.8,0.5c-0.1,0-0.3,0.1-0.4,0.1c-0.3,0-0.6,0.1-0.7,0.2
					C85.1,8.2,85,8.5,85,8.9v0.9h2.6c0.1,0,0.2,0.1,0.2,0.2v0.9c0,0.6-0.2,1.2-0.7,1.6c-0.5,0.4-1,0.6-1.6,0.6H85v12
					c0,0.1-0.1,0.2-0.2,0.2L82.7,25.2C82.8,25.2,82.8,25.2,82.7,25.2z M85.5,4.5c-1.7,0-2.9,0.3-3.6,1c-0.8,0.7-1.2,1.7-1.2,3.1V23
					c0,0,0,0.7,0.4,1.2c0.2,0.2,0.5,0.4,0.7,0.5s0.4,0.1,0.5,0.1c0.2,0,0.4,0,0.4,0h1.9v-12c0-0.1,0.1-0.2,0.2-0.2h0.6
					c0.5,0,0.9-0.2,1.3-0.5s0.6-0.8,0.6-1.3v-0.7h-2.6c-0.1,0-0.2-0.1-0.2-0.2v-1c0-0.5,0.1-0.9,0.4-1.1c0.2-0.1,0.5-0.2,0.9-0.3
					c0.1,0,0.3,0,0.3-0.1c0.2-0.1,0.5-0.2,0.7-0.4c0.2-0.2,0.3-0.3,0.3-0.5c0.1-0.3,0.1-0.6,0.1-0.6l0,0V4.5c-0.2,0-0.5,0-0.9,0
					c-0.2,0-0.3,0-0.5,0C85.9,4.5,85.7,4.5,85.5,4.5z"/>
			</g>
			<g>
				<path class="st0" d="M99,20h3.2c-0.5,1.7-1.4,2.9-2.7,3.8c-1.3,0.9-3,1.4-5,1.4c-2.4,0-4.3-0.7-5.7-2.2c-1.4-1.4-2-3.5-2-6.1
					c0-2.5,0.7-4.5,2-5.9c1.4-1.5,3.2-2.2,5.7-2.2s4.5,0.7,5.9,2.1c1.4,1.5,2,3.5,2,6.1c0,0.2,0,0.3,0,0.4s0,0.2,0,0.2
					c0,0.2,0,0.3-0.1,0.4h-11c0,1.2,0.4,2.1,1,2.7s1.4,1,2.5,1c0.7,0,1.3-0.1,1.8-0.4c0.1,0,0.2-0.1,0.4-0.2
					c0.1-0.1,0.2-0.2,0.3-0.3c0-0.1,0.2-0.3,0.5-0.5C98.1,20.1,98.5,20,99,20z M91.4,15.3h6.5c-0.1-1.1-0.4-1.9-0.9-2.4
					c-0.6-0.6-1.3-0.8-2.4-0.8c-0.9,0-1.7,0.3-2.3,0.8C91.7,13.5,91.4,14.3,91.4,15.3z"/>
				<path class="st0" d="M94.5,25.3c-2.5,0-4.4-0.8-5.8-2.3c-1.4-1.4-2.1-3.5-2.1-6.2c0-2.6,0.7-4.6,2-6c1.4-1.5,3.3-2.3,5.8-2.3
					c2.6,0,4.6,0.7,6.1,2.2c1.4,1.5,2.1,3.6,2.1,6.2v0.7c0,0.2,0,0.4-0.1,0.5c0,0.1-0.1,0.1-0.2,0.1H91.5c0.1,1.1,0.4,1.9,0.9,2.5
					s1.3,0.9,2.4,0.9c0.7,0,1.3-0.1,1.8-0.4l0,0c0.1,0,0.2-0.1,0.3-0.2l0.3-0.3c0.1-0.1,0.2-0.3,0.5-0.5s0.7-0.3,1.3-0.3h3.2
					c0.1,0,0.1,0,0.1,0.1v0.1c-0.5,1.7-1.4,3-2.7,3.9C98.3,24.8,96.6,25.3,94.5,25.3z M94.5,8.9c-2.4,0-4.2,0.7-5.5,2.1
					s-1.9,3.4-1.9,5.8c0,2.6,0.7,4.6,2,6s3.2,2.1,5.5,2.1c1.9,0,3.6-0.4,4.9-1.3c1.2-0.8,2.1-2,2.5-3.5h-3c-0.5,0-0.8,0.1-1.1,0.3
					c-0.3,0.2-0.4,0.4-0.4,0.4s0,0,0,0.1l-0.3,0.3c-0.1,0.1-0.3,0.2-0.4,0.2c-0.5,0.3-1.2,0.4-1.9,0.4c-1.2,0-2-0.3-2.6-1
					c-0.6-0.6-1-1.6-1-2.8c0,0,0-0.1,0.1-0.1l0.1-0.1h10.9c0-0.1,0-0.1,0-0.2V17c0-2.6-0.7-4.6-2-6C98.9,9.6,97,8.9,94.5,8.9z
					 M97.9,15.5h-6.5c0,0-0.1,0-0.1-0.1c0,0-0.1-0.1,0-0.1c0-1.1,0.4-1.9,1-2.5s1.4-0.9,2.4-0.9c1.1,0,1.9,0.3,2.5,0.9
					c0.5,0.5,0.9,1.4,0.9,2.5v0.1C97.9,15.5,97.9,15.5,97.9,15.5z M91.5,15.2h6.1c-0.1-0.9-0.4-1.6-0.8-2.1
					c-0.5-0.5-1.3-0.8-2.2-0.8c-0.9,0-1.6,0.3-2.2,0.8C91.9,13.6,91.6,14.3,91.5,15.2z"/>
			</g>
			<g>
				<path class="st0" d="M114.9,20h3.2c-0.5,1.7-1.4,2.9-2.7,3.8c-1.3,0.9-3,1.4-5,1.4c-2.4,0-4.3-0.7-5.7-2.2c-1.4-1.4-2-3.5-2-6.1
					c0-2.5,0.7-4.5,2-5.9c1.4-1.5,3.2-2.2,5.7-2.2s4.5,0.7,5.9,2.1c1.4,1.5,2,3.5,2,6.1c0,0.2,0,0.3,0,0.4s0,0.2,0,0.2
					c0,0.2,0,0.3-0.1,0.4h-11c0,1.2,0.4,2.1,1,2.7s1.4,1,2.5,1c0.7,0,1.3-0.1,1.8-0.4c0.1,0,0.2-0.1,0.3-0.2
					c0.1-0.1,0.2-0.2,0.4-0.3c0-0.1,0.2-0.3,0.5-0.5C114,20.1,114.4,20,114.9,20z M107.3,15.3h6.5c-0.1-1.1-0.4-1.9-0.9-2.4
					c-0.6-0.6-1.3-0.8-2.4-0.8c-0.9,0-1.7,0.3-2.3,0.8C107.6,13.5,107.3,14.3,107.3,15.3z"/>
				<path class="st0" d="M110.5,25.3c-2.5,0-4.4-0.8-5.8-2.3c-1.4-1.4-2.1-3.5-2.1-6.2c0-2.6,0.7-4.6,2-6c1.4-1.5,3.3-2.3,5.8-2.3
					c2.6,0,4.6,0.7,6.1,2.2c1.4,1.5,2.1,3.6,2.1,6.2v0.7c0,0.2,0,0.4-0.1,0.5c0,0.1-0.1,0.1-0.2,0.1h-10.8c0.1,1.1,0.4,1.9,0.9,2.5
					s1.3,0.9,2.4,0.9c0.7,0,1.3-0.1,1.8-0.4l0,0c0.1,0,0.2-0.1,0.3-0.2l0.3-0.3c0.1-0.1,0.2-0.3,0.5-0.5s0.7-0.3,1.3-0.3h3.2
					c0.1,0,0.1,0,0.1,0.1v0.1c-0.5,1.7-1.4,3-2.7,3.9C114.2,24.8,112.5,25.3,110.5,25.3z M110.4,8.9c-2.4,0-4.2,0.7-5.5,2.1
					s-1.9,3.4-1.9,5.8c0,2.6,0.7,4.6,2,6s3.2,2.1,5.5,2.1c1.9,0,3.6-0.4,4.9-1.3c1.2-0.8,2.1-2,2.5-3.5h-3c-0.5,0-0.8,0.1-1.1,0.3
					c-0.3,0.2-0.4,0.4-0.4,0.4s0,0,0,0.1l-0.4,0.3c-0.1,0.1-0.3,0.2-0.4,0.2c-0.5,0.3-1.2,0.4-1.9,0.4c-1.2,0-2-0.3-2.6-1
					c-0.6-0.6-1-1.6-1-2.8v-0.1l0.1-0.1h10.9c0-0.1,0-0.1,0-0.2V17c0-2.6-0.7-4.6-2-6C114.8,9.6,112.9,8.9,110.4,8.9z M113.8,15.5
					h-6.5c0,0-0.1,0-0.1-0.1c0,0-0.1-0.1,0-0.1c0-1.1,0.4-1.9,1-2.5s1.4-0.9,2.4-0.9c1.1,0,1.9,0.3,2.5,0.9c0.5,0.5,0.9,1.4,0.9,2.5
					v0.1C113.9,15.5,113.8,15.5,113.8,15.5z M107.5,15.2h6.1c-0.1-0.9-0.4-1.6-0.8-2.1c-0.5-0.5-1.3-0.8-2.2-0.8
					c-0.9,0-1.6,0.3-2.2,0.8S107.5,14.3,107.5,15.2z"/>
			</g>
			<g>
				<path class="st0" d="M130.3,4.4h2.2c0.6,0,1.1,0.2,1.5,0.6s0.6,0.9,0.6,1.4V18c0,2.8-0.9,4.7-2.6,5.7c-1.7,1-3.6,1.5-5.7,1.5
					c-1.1,0-2.2-0.2-3.2-0.5c-1.1-0.3-1.9-0.9-2.5-1.6c-1.2-1.5-1.8-3.5-1.8-6s0.6-4.5,1.8-6c1.3-1.5,2.9-2.3,4.9-2.3
					c1.1,0,2,0.2,2.8,0.6c0.8,0.5,1.5,1.1,2,1.8V4.4z M123,16.8c0,1.6,0.3,2.8,1,3.6c0.6,0.8,1.5,1.2,2.7,1.2c1.1,0,2-0.4,2.7-1.2
					c0.6-0.8,0.9-2,0.9-3.6c0-1.4-0.3-2.6-1-3.4c-0.7-0.8-1.6-1.2-2.7-1.2s-2,0.4-2.6,1.2C123.3,14.3,123,15.4,123,16.8z"/>
				<path class="st0" d="M126.3,25.3c-1.1,0-2.2-0.2-3.3-0.5c-1.1-0.3-2-0.9-2.6-1.7c-1.3-1.5-1.9-3.5-1.9-6.1
					c0-2.5,0.6-4.6,1.9-6.1c1.3-1.6,3-2.4,5-2.4c1.1,0,2.1,0.2,2.9,0.6c0.7,0.4,1.3,0.9,1.8,1.5V4.4c0-0.1,0.1-0.2,0.2-0.2h2.2
					c0.6,0,1.2,0.2,1.7,0.7c0.5,0.4,0.7,1,0.7,1.5V18c0,2.9-0.9,4.8-2.7,5.8C130.3,24.8,128.4,25.3,126.3,25.3z M125.4,8.9
					c-1.9,0-3.5,0.8-4.8,2.3c-1.2,1.5-1.8,3.5-1.8,5.9c0,2.5,0.6,4.5,1.8,5.9c0.6,0.7,1.4,1.3,2.5,1.6c1,0.3,2.1,0.5,3.2,0.5
					c2,0,3.9-0.5,5.6-1.5s2.5-2.8,2.5-5.6V6.4c0-0.5-0.2-0.9-0.6-1.3c-0.4-0.4-0.9-0.6-1.4-0.6h-2v6.6c0,0.1-0.1,0.1-0.1,0.2
					c-0.1,0-0.2,0-0.2-0.1c-0.5-0.7-1.2-1.3-2-1.8C127.4,9.1,126.4,8.9,125.4,8.9z M126.7,21.9c-1.2,0-2.2-0.4-2.9-1.3
					c-0.7-0.9-1-2.1-1-3.7c0-1.5,0.3-2.6,1-3.4c0.7-0.9,1.6-1.3,2.8-1.3c1.2,0,2.2,0.4,2.9,1.3c0.7,0.9,1,2,1,3.5
					c0,1.6-0.3,2.9-0.9,3.7C128.8,21.4,127.9,21.9,126.7,21.9z M126.6,12.4c-1.1,0-1.9,0.4-2.5,1.2s-0.9,1.8-0.9,3.2
					c0,1.5,0.3,2.7,0.9,3.5s1.5,1.2,2.6,1.2s1.9-0.4,2.5-1.2c0.6-0.8,0.9-2,0.9-3.5c0-1.4-0.3-2.5-0.9-3.3
					C128.5,12.8,127.7,12.4,126.6,12.4z"/>
			</g>
			<g>
				<path class="st0" d="M134.8,19.6h4.3c0,0.8,0.4,1.4,1,1.8s1.5,0.6,2.5,0.6c0.8,0,1.4-0.1,2-0.4c0.5-0.3,0.8-0.7,0.8-1.1
					c0-0.7-0.9-1.2-2.7-1.6c-0.8-0.2-1.6-0.4-2-0.5c-2.2-0.6-3.5-1-4.3-1.7c-0.8-0.7-1.3-1.7-1.3-2.9c0-1.5,0.6-2.8,1.8-3.7
					c1.3-0.9,2.9-1.4,5-1.4c2.2,0,4,0.5,5.3,1.4c1.2,1,1.9,2.3,2,3.9h-2.7c-0.8,0-1.4-0.3-1.8-1c-0.1-0.1-0.2-0.2-0.3-0.3
					s-0.2-0.1-0.2-0.2c-0.5-0.4-1.2-0.5-2.1-0.5c-0.8,0-1.5,0.1-1.9,0.4c-0.4,0.2-0.6,0.6-0.6,1.1c0,0.6,0.9,1.2,3.1,1.6
					c0.3,0.1,1.2,0.3,1.5,0.3c2.2,0.5,3.6,1,4.5,1.7c0.8,0.7,1.2,1.7,1.2,2.9c0,1.7-0.7,3.1-2,4s-3.2,1.3-5.7,1.3
					c-2.4,0-4.2-0.5-5.4-1.4s-1.8-2.2-1.8-4v-0.3H134.8z"/>
				<path class="st0" d="M142.1,25.3c-2.5,0-4.3-0.5-5.5-1.4c-1.3-0.9-1.9-2.3-1.9-4.1v-0.2c0-0.1,0.1-0.2,0.2-0.2h4.3
					c0.1,0,0.2,0.1,0.2,0.2c0,0.7,0.3,1.3,0.9,1.7c0.6,0.4,1.4,0.6,2.4,0.6c0.7,0,1.4-0.1,1.9-0.4c0.5-0.2,0.7-0.6,0.7-1
					c0-0.6-0.8-1-2.5-1.4c-0.3-0.1-0.7-0.2-1-0.2c-0.4-0.1-0.7-0.2-1-0.2c-2.1-0.6-3.5-1-4.3-1.8c-0.9-0.7-1.3-1.7-1.3-3
					c0-1.5,0.6-2.8,1.9-3.9c1.3-0.9,3-1.4,5.1-1.4c2.2,0,4,0.5,5.4,1.4c1.3,1,2,2.4,2,4v0.1l-0.1,0.1h-2.7c-0.9,0-1.5-0.4-2-1.1
					l-0.1-0.1l-0.1-0.1l-0.1-0.1l-0.1-0.1c-0.5-0.3-1.1-0.5-2-0.5c-0.8,0-1.4,0.1-1.8,0.3c-0.3,0.2-0.5,0.5-0.5,0.9c0,0.6,1,1,3,1.4
					l0,0c0.2,0.1,1.1,0.3,1.4,0.3h0.1c2.1,0.5,3.6,1,4.5,1.7c0.8,0.7,1.3,1.7,1.3,3c0,1.8-0.7,3.2-2.1,4.2
					C146.6,24.9,144.6,25.3,142.1,25.3z M135,19.8L135,19.8c0,1.7,0.6,3,1.8,3.9s2.9,1.3,5.3,1.3c2.5,0,4.4-0.4,5.6-1.3
					c1.3-0.9,2-2.2,2-3.9c0-1.1-0.4-2.1-1.2-2.7c-0.8-0.7-2.3-1.2-4.4-1.7H144c-0.5-0.1-1.2-0.3-1.4-0.3c-2.2-0.4-3.3-1-3.3-1.8
					c0-0.5,0.2-0.9,0.7-1.2s1.1-0.4,2-0.4s1.7,0.2,2.2,0.6l0,0l0.1,0.1l0.1,0.1c0,0,0.1,0.1,0.1,0.2l0.1,0.1l0,0
					c0.4,0.6,0.9,0.9,1.7,0.9h2.5c-0.1-1.5-0.8-2.7-1.9-3.6c-1.3-0.9-3-1.3-5.2-1.3c-2,0-3.6,0.4-4.9,1.3c-1.2,0.9-1.8,2.2-1.8,3.6
					c0,1.1,0.4,2.1,1.2,2.7c0.7,0.7,1.9,1.1,4.2,1.7c0.2,0.1,0.6,0.1,1,0.2c0.3,0.1,0.7,0.2,1,0.2c1.5,0.4,2.8,0.8,2.8,1.8
					c0,0.5-0.3,1-0.9,1.3c-0.6,0.3-1.3,0.4-2.1,0.4c-1.1,0-2-0.2-2.6-0.6s-0.9-1-1-1.8H135V19.8z"/>
			</g>
		</g>
		<g>
			
				<linearGradient id="SVGID_1_" gradientUnits="userSpaceOnUse" x1="57.65" y1="12.9311" x2="57.65" y2="31.8433" gradientTransform="matrix(1 0 0 -1 0 33.2756)">
				<stop  offset="0" style="stop-color:#9D9D9C"/>
				<stop  offset="3.343445e-02" style="stop-color:#A1A1A1"/>
				<stop  offset="0.2037" style="stop-color:#B2B2B2"/>
				<stop  offset="0.3961" style="stop-color:#BEBEBD"/>
				<stop  offset="0.6271" style="stop-color:#C4C4C4"/>
				<stop  offset="1" style="stop-color:#C6C6C6"/>
			</linearGradient>
			<path class="st1" d="M50.1,19.5h4.3c0,0.8,0.4,1.4,1,1.8s1.5,0.6,2.5,0.6c0.8,0,1.4-0.1,2-0.4c0.5-0.3,0.8-0.7,0.8-1.1
				c0-0.7-0.9-1.2-2.7-1.6c-0.8-0.2-1.6-0.4-2-0.5c-2.2-0.6-3.5-1-4.3-1.7c-0.8-0.7-1.3-1.7-1.3-2.9c0-1.5,0.6-2.8,1.8-3.7
				c1.3-0.9,2.9-1.4,5-1.4c2.2,0,4,0.5,5.3,1.4c1.2,1,1.9,2.3,2,3.9h-2.7c-0.8,0-1.4-0.3-1.8-1c-0.1-0.1-0.2-0.2-0.3-0.3
				s-0.2-0.1-0.2-0.2c-0.5-0.4-1.2-0.5-2.1-0.5c-0.8,0-1.5,0.1-1.9,0.4c-0.4,0.2-0.6,0.6-0.6,1.1c0,0.6,0.9,1.2,3.1,1.6
				c0.3,0.1,1.2,0.3,1.5,0.3c2.2,0.5,3.6,1,4.5,1.7c0.8,0.7,1.2,1.7,1.2,2.9c0,1.7-0.7,3.1-2,4c-1.3,0.9-3.2,1.3-5.7,1.3
				c-2.4,0-4.2-0.5-5.4-1.4s-1.8-2.2-1.8-4v-0.3H50.1z"/>
			
				<linearGradient id="SVGID_00000056423420338602497590000008107950908031301299_" gradientUnits="userSpaceOnUse" x1="72.75" y1="12.9311" x2="72.75" y2="31.8433" gradientTransform="matrix(1 0 0 -1 0 33.2756)">
				<stop  offset="0" style="stop-color:#9D9D9C"/>
				<stop  offset="3.343445e-02" style="stop-color:#A1A1A1"/>
				<stop  offset="0.2037" style="stop-color:#B2B2B2"/>
				<stop  offset="0.3961" style="stop-color:#BEBEBD"/>
				<stop  offset="0.6271" style="stop-color:#C4C4C4"/>
				<stop  offset="1" style="stop-color:#C6C6C6"/>
			</linearGradient>
			<path style="fill:url(#SVGID_00000056423420338602497590000008107950908031301299_);" d="M76.7,24.1c-0.9,0.4-1.8,0.7-2.8,0.8
				C72.9,25,72,25,71.3,25c-1.5,0-2.9-0.4-4-1.2c-1.1-0.8-1.7-2-1.7-3.8c0-1.7,0.5-2.9,1.6-3.6c1-0.7,2.4-1.2,4-1.4
				c0.2,0,0.5,0,0.8-0.1s0.6-0.1,1-0.1c1.9-0.2,2.8-0.8,2.8-1.5c0-0.6-0.3-1-1-1.2s-1.3-0.3-1.8-0.3c-0.6,0-1.1,0.1-1.6,0.2
				c-0.5,0.2-0.8,0.5-1,0.9h-4.3c0.2-1.2,0.8-2.2,1.8-3C69,9,70.7,8.5,72.8,8.5c2.4,0,4.2,0.4,5.3,1.1c1.2,0.8,1.8,1.9,1.8,3.3v5.4
				c0,1.6-0.3,2.8-0.9,3.7C78.3,23.1,77.5,23.7,76.7,24.1z M75.7,16.8c-0.6,0.3-1.4,0.5-2.5,0.8l-1.5,0.3c-0.8,0.2-1.3,0.5-1.7,0.8
				c-0.3,0.4-0.4,0.9-0.4,1.3c0,0.6,0.2,1.1,0.6,1.4s0.9,0.5,1.7,0.5c1.2,0,2.1-0.3,2.8-1c0.7-0.6,1-1.5,1-2.6V16.8z"/>
			
				<linearGradient id="SVGID_00000180360321499353870080000007225917113426307222_" gradientUnits="userSpaceOnUse" x1="83.95" y1="12.9312" x2="83.95" y2="31.8427" gradientTransform="matrix(1 0 0 -1 0 33.2756)">
				<stop  offset="0" style="stop-color:#9D9D9C"/>
				<stop  offset="3.343445e-02" style="stop-color:#A1A1A1"/>
				<stop  offset="0.2037" style="stop-color:#B2B2B2"/>
				<stop  offset="0.3961" style="stop-color:#BEBEBD"/>
				<stop  offset="0.6271" style="stop-color:#C4C4C4"/>
				<stop  offset="1" style="stop-color:#C6C6C6"/>
			</linearGradient>
			<path style="fill:url(#SVGID_00000180360321499353870080000007225917113426307222_);" d="M80.4,22.9V8.5c0-1.4,0.4-2.5,1.2-3.2
				c0.8-0.7,2-1,3.8-1c0.4,0,0.7,0,1,0c0.5,0,0.8,0,1.1,0V6c0,0,0,0.3-0.1,0.6C87.3,6.8,87.2,7,87,7.1c-0.2,0.2-0.5,0.4-0.8,0.5
				c-0.2,0.1-0.4,0.1-0.4,0.1c-0.3,0-0.6,0.1-0.8,0.2c-0.2,0.2-0.3,0.5-0.3,1V10h2.7v0.9c0,0.6-0.2,1.1-0.6,1.5S85.9,13,85.3,13
				h-0.6v12.1h-2.1c0,0-0.2,0-0.4,0c-0.2,0-0.4-0.1-0.6-0.2c-0.3-0.1-0.6-0.3-0.8-0.6C80.4,23.6,80.4,22.9,80.4,22.9z"/>
			
				<linearGradient id="SVGID_00000147917210519039932240000013166807342234697105_" gradientUnits="userSpaceOnUse" x1="94.5" y1="12.9311" x2="94.5" y2="31.8433" gradientTransform="matrix(1 0 0 -1 0 33.2756)">
				<stop  offset="0" style="stop-color:#9D9D9C"/>
				<stop  offset="3.343445e-02" style="stop-color:#A1A1A1"/>
				<stop  offset="0.2037" style="stop-color:#B2B2B2"/>
				<stop  offset="0.3961" style="stop-color:#BEBEBD"/>
				<stop  offset="0.6271" style="stop-color:#C4C4C4"/>
				<stop  offset="1" style="stop-color:#C6C6C6"/>
			</linearGradient>
			<path style="fill:url(#SVGID_00000147917210519039932240000013166807342234697105_);" d="M98.9,19.9h3.2
				c-0.5,1.7-1.4,2.9-2.7,3.8c-1.3,0.9-3,1.4-5,1.4c-2.4,0-4.3-0.7-5.7-2.2c-1.4-1.4-2-3.5-2-6.1c0-2.5,0.7-4.5,2-5.9
				c1.4-1.5,3.2-2.2,5.7-2.2s4.5,0.7,5.9,2.1c1.4,1.5,2,3.5,2,6.1c0,0.2,0,0.3,0,0.4s0,0.2,0,0.2c0,0.2,0,0.3-0.1,0.4h-11
				c0,1.2,0.4,2.1,1,2.7s1.4,1,2.5,1c0.7,0,1.3-0.1,1.8-0.4c0.1,0,0.2-0.1,0.4-0.2c0.1-0.1,0.2-0.2,0.4-0.3c0-0.1,0.2-0.3,0.5-0.5
				C98,20,98.4,19.9,98.9,19.9z M91.2,15.3h6.5c-0.1-1.1-0.4-1.9-0.9-2.4c-0.6-0.6-1.3-0.8-2.4-0.8c-0.9,0-1.7,0.3-2.3,0.8
				C91.6,13.4,91.3,14.2,91.2,15.3z"/>
			
				<linearGradient id="SVGID_00000035521899100872161160000001063775870109088677_" gradientUnits="userSpaceOnUse" x1="110.4" y1="12.9311" x2="110.4" y2="31.8433" gradientTransform="matrix(1 0 0 -1 0 33.2756)">
				<stop  offset="0" style="stop-color:#9D9D9C"/>
				<stop  offset="3.343445e-02" style="stop-color:#A1A1A1"/>
				<stop  offset="0.2037" style="stop-color:#B2B2B2"/>
				<stop  offset="0.3961" style="stop-color:#BEBEBD"/>
				<stop  offset="0.6271" style="stop-color:#C4C4C4"/>
				<stop  offset="1" style="stop-color:#C6C6C6"/>
			</linearGradient>
			<path style="fill:url(#SVGID_00000035521899100872161160000001063775870109088677_);" d="M114.8,19.9h3.2
				c-0.5,1.7-1.4,2.9-2.7,3.8c-1.3,0.9-3,1.4-5,1.4c-2.4,0-4.3-0.7-5.7-2.2c-1.4-1.4-2-3.5-2-6.1c0-2.5,0.7-4.5,2-5.9
				c1.4-1.5,3.2-2.2,5.7-2.2s4.5,0.7,5.9,2.1c1.4,1.5,2,3.5,2,6.1c0,0.2,0,0.3,0,0.4s0,0.2,0,0.2c0,0.2,0,0.3-0.1,0.4h-11
				c0,1.2,0.4,2.1,1,2.7s1.4,1,2.5,1c0.7,0,1.3-0.1,1.8-0.4c0.1,0,0.2-0.1,0.3-0.2c0.1-0.1,0.2-0.2,0.4-0.3c0-0.1,0.2-0.3,0.5-0.5
				C113.9,20,114.3,19.9,114.8,19.9z M107.2,15.3h6.5c-0.1-1.1-0.4-1.9-0.9-2.4c-0.6-0.6-1.3-0.8-2.4-0.8c-0.9,0-1.7,0.3-2.3,0.8
				C107.5,13.4,107.2,14.2,107.2,15.3z"/>
			
				<linearGradient id="SVGID_00000147907659425977696790000011177266673183493030_" gradientUnits="userSpaceOnUse" x1="126.6" y1="12.9311" x2="126.6" y2="31.8431" gradientTransform="matrix(1 0 0 -1 0 33.2756)">
				<stop  offset="0" style="stop-color:#9D9D9C"/>
				<stop  offset="3.343445e-02" style="stop-color:#A1A1A1"/>
				<stop  offset="0.2037" style="stop-color:#B2B2B2"/>
				<stop  offset="0.3961" style="stop-color:#BEBEBD"/>
				<stop  offset="0.6271" style="stop-color:#C4C4C4"/>
				<stop  offset="1" style="stop-color:#C6C6C6"/>
			</linearGradient>
			<path style="fill:url(#SVGID_00000147907659425977696790000011177266673183493030_);" d="M130.2,4.3h2.2c0.6,0,1.1,0.2,1.5,0.6
				s0.6,0.9,0.6,1.4v11.6c0,2.8-0.9,4.7-2.6,5.7c-1.7,1-3.6,1.5-5.7,1.5c-1.1,0-2.2-0.2-3.2-0.5c-1.1-0.3-1.9-0.9-2.5-1.6
				c-1.2-1.5-1.8-3.5-1.8-6s0.6-4.5,1.8-6c1.3-1.5,2.9-2.3,4.9-2.3c1.1,0,2,0.2,2.8,0.6c0.8,0.5,1.5,1.1,2,1.8V4.3z M122.9,16.7
				c0,1.6,0.3,2.8,1,3.6c0.6,0.8,1.5,1.2,2.7,1.2c1.1,0,2-0.4,2.7-1.2c0.6-0.8,0.9-2,0.9-3.6c0-1.4-0.3-2.6-1-3.4
				c-0.7-0.8-1.6-1.2-2.7-1.2s-2,0.4-2.6,1.2C123.2,14.2,122.9,15.3,122.9,16.7z"/>
			
				<linearGradient id="SVGID_00000152969671030702118190000016171751685103858817_" gradientUnits="userSpaceOnUse" x1="142.25" y1="12.9311" x2="142.25" y2="31.8433" gradientTransform="matrix(1 0 0 -1 0 33.2756)">
				<stop  offset="0" style="stop-color:#9D9D9C"/>
				<stop  offset="3.343445e-02" style="stop-color:#A1A1A1"/>
				<stop  offset="0.2037" style="stop-color:#B2B2B2"/>
				<stop  offset="0.3961" style="stop-color:#BEBEBD"/>
				<stop  offset="0.6271" style="stop-color:#C4C4C4"/>
				<stop  offset="1" style="stop-color:#C6C6C6"/>
			</linearGradient>
			<path style="fill:url(#SVGID_00000152969671030702118190000016171751685103858817_);" d="M134.7,19.5h4.3c0,0.8,0.4,1.4,1,1.8
				s1.5,0.6,2.5,0.6c0.8,0,1.4-0.1,2-0.4c0.5-0.3,0.8-0.7,0.8-1.1c0-0.7-0.9-1.2-2.7-1.6c-0.8-0.2-1.6-0.4-2-0.5
				c-2.2-0.6-3.5-1-4.3-1.7c-0.8-0.7-1.3-1.7-1.3-2.9c0-1.5,0.6-2.8,1.8-3.7c1.3-0.9,2.9-1.4,5-1.4c2.2,0,4,0.5,5.3,1.4
				c1.2,1,1.9,2.3,2,3.9h-2.7c-0.8,0-1.4-0.3-1.8-1c-0.1-0.1-0.2-0.2-0.3-0.3s-0.2-0.1-0.2-0.2c-0.5-0.4-1.2-0.5-2.1-0.5
				c-0.8,0-1.5,0.1-1.9,0.4c-0.4,0.2-0.6,0.6-0.6,1.1c0,0.6,0.9,1.2,3.1,1.6c0.3,0.1,1.2,0.3,1.5,0.3c2.2,0.5,3.6,1,4.5,1.7
				c0.8,0.7,1.2,1.7,1.2,2.9c0,1.7-0.7,3.1-2,4s-3.2,1.3-5.7,1.3c-2.4,0-4.2-0.5-5.4-1.4s-1.8-2.2-1.8-4v-0.3H134.7z"/>
		</g>
		<g>
			<g>
				<path class="st0" d="M57.4,25.1c-2.4,0-4.2-0.5-5.4-1.4s-1.9-2.3-1.9-4v-0.2l0,0h4.3l0,0c0,0.8,0.4,1.4,0.9,1.8
					c0.6,0.4,1.5,0.6,2.5,0.6c0.8,0,1.4-0.1,2-0.4c0.5-0.3,0.7-0.6,0.7-1.1c0-0.6-0.8-1.1-2.6-1.6c-0.3-0.1-0.7-0.2-1-0.2
					c-0.4-0.1-0.7-0.2-1-0.2c-2.1-0.6-3.5-1-4.3-1.7c-0.9-0.7-1.3-1.7-1.3-2.9c0-1.5,0.6-2.8,1.9-3.8c1.3-0.9,3-1.4,5-1.4
					c2.2,0,4,0.5,5.3,1.4c1.2,1,1.9,2.3,2,3.9l0,0l0,0h-2.7c-0.8,0-1.4-0.3-1.9-1l-0.1-0.1l-0.1-0.1l-0.1-0.1l-0.1-0.1
					C59,12.2,58.3,12,57.4,12c-0.8,0-1.5,0.1-1.9,0.4c-0.4,0.2-0.6,0.6-0.6,1c0,0.6,1,1.1,3.1,1.6c0.2,0.1,1,0.2,1.4,0.3h0.1
					c2.1,0.5,3.6,1,4.5,1.7c0.8,0.7,1.2,1.7,1.2,2.9c0,1.7-0.7,3.1-2.1,4.1C61.9,24.7,59.9,25.1,57.4,25.1z M50.2,19.6v0.1
					c0,1.7,0.6,3.1,1.8,4s3,1.4,5.4,1.4c2.5,0,4.4-0.4,5.7-1.3s2-2.3,2-4c0-1.2-0.4-2.1-1.2-2.8c-0.9-0.7-2.3-1.2-4.4-1.7h-0.1
					c-0.3-0.1-1.1-0.2-1.4-0.3c-2.2-0.4-3.2-0.9-3.2-1.6c0-0.5,0.2-0.9,0.6-1.1c0.4-0.2,1.1-0.4,1.9-0.4c0.9,0,1.6,0.2,2.1,0.5
					l0.1,0.1l0.1,0.1l0.1,0.1l0.1,0.1l0,0c0.4,0.7,1,1,1.8,1h2.7c-0.1-1.5-0.8-2.8-2-3.8C61,9.1,59.2,8.6,57,8.6
					c-2,0-3.7,0.5-4.9,1.4c-1.2,1-1.8,2.2-1.8,3.7c0,1.2,0.4,2.1,1.3,2.8c0.8,0.7,2.2,1.2,4.2,1.7c0.2,0.1,0.6,0.1,1,0.2
					c0.3,0.1,0.7,0.2,1,0.2c1.9,0.5,2.7,1,2.7,1.6c0,0.5-0.3,0.9-0.8,1.2c-0.6,0.3-1.2,0.4-2,0.4c-1.1,0-1.9-0.2-2.6-0.6
					c-0.6-0.4-0.9-1-1-1.8h-3.9V19.6z"/>
			</g>
			<g>
				<path class="st0" d="M71.2,25.1c-1.5,0-2.9-0.4-4-1.2c-1.2-0.8-1.7-2.1-1.7-3.9c0-1.7,0.5-2.9,1.6-3.6c1-0.7,2.4-1.2,4-1.4
					c0.2,0,0.5,0,0.8-0.1s0.6-0.1,1-0.1c1.8-0.2,2.8-0.7,2.8-1.5c0-0.6-0.3-0.9-1-1.1c-0.7-0.2-1.3-0.3-1.8-0.3
					c-0.6,0-1.1,0.1-1.6,0.2c-0.5,0.2-0.8,0.4-1,0.9l0,0H66l0,0l0,0c0.2-1.2,0.8-2.3,1.8-3.1c1.1-0.9,2.8-1.4,4.9-1.4
					c2.4,0,4.2,0.4,5.4,1.1c1.2,0.8,1.9,1.9,1.9,3.4v5.4c0,1.6-0.3,2.8-0.9,3.7c-0.6,0.9-1.4,1.5-2.2,1.9c-0.9,0.4-1.8,0.7-2.8,0.8
					C72.8,25,72,25.1,71.2,25.1z M72.8,11.8c0.6,0,1.2,0.1,1.8,0.3c0.7,0.2,1,0.6,1,1.2c0,0.8-1,1.3-2.8,1.6c-0.4,0-0.7,0.1-1,0.1
					c-0.3,0.1-0.6,0.1-0.8,0.1c-1.6,0.2-2.9,0.7-4,1.4c-1,0.7-1.5,1.9-1.5,3.5c0,1.8,0.6,3,1.7,3.8s2.5,1.2,4,1.2
					c0.8,0,1.6,0,2.6-0.1s1.9-0.4,2.8-0.8c0.8-0.4,1.6-1,2.2-1.9s0.9-2.1,0.9-3.7v-5.4c0-1.4-0.6-2.5-1.8-3.3
					c-1.2-0.7-3-1.1-5.3-1.1c-2.1,0-3.7,0.5-4.9,1.4c-1,0.8-1.6,1.8-1.8,3h4.2c0.2-0.4,0.6-0.7,1-0.9C71.7,11.9,72.2,11.8,72.8,11.8
					z M71.8,21.9c-0.7,0-1.3-0.2-1.7-0.5c-0.4-0.4-0.6-0.9-0.6-1.5c0-0.4,0.2-0.9,0.5-1.3c0.3-0.3,0.9-0.6,1.7-0.8l1.5-0.3
					c1.1-0.2,1.9-0.5,2.5-0.8l0,0l0,0v1.5c0,1.1-0.3,2-1,2.6C74,21.6,73,21.9,71.8,21.9z M75.6,16.9c-0.6,0.3-1.4,0.5-2.4,0.7
					l-1.5,0.3c-0.8,0.2-1.3,0.5-1.6,0.8c-0.3,0.4-0.4,0.9-0.4,1.3c0,0.6,0.2,1.1,0.6,1.4s0.9,0.5,1.6,0.5c1.2,0,2.1-0.3,2.8-0.9
					c0.7-0.6,1-1.5,1-2.6L75.6,16.9L75.6,16.9z"/>
			</g>
			<g>
				<path class="st0" d="M82.6,25c-0.1,0-0.2,0-0.3,0c-0.2,0-0.4-0.1-0.6-0.2c-0.3-0.1-0.6-0.3-0.8-0.6c-0.5-0.6-0.5-1.3-0.5-1.3
					V8.5c0-1.4,0.4-2.5,1.2-3.2c0.8-0.7,2-1,3.8-1c0.2,0,0.4,0,0.6,0s0.3,0,0.5,0c0.5,0,0.8,0,1.1,0l0,0l0,0V6c0,0,0,0.3-0.1,0.7
					C87.3,6.8,87.2,7,87,7.1c-0.3,0.3-0.7,0.4-0.8,0.5c-0.1,0-0.2,0.1-0.4,0.1c-0.3,0-0.6,0.1-0.8,0.2c-0.2,0.1-0.3,0.5-0.3,0.9v1
					h2.7l0,0v0.9c0,0.6-0.2,1.1-0.6,1.5s-0.9,0.6-1.5,0.6h-0.6v12.1l0,0L82.6,25C82.7,25,82.7,25,82.6,25z M85.4,4.3
					c-1.7,0-3,0.3-3.7,1c-0.8,0.7-1.2,1.8-1.2,3.2v14.4c0,0,0,0.7,0.5,1.3c0.2,0.2,0.5,0.4,0.8,0.6c0.2,0.1,0.4,0.1,0.6,0.2
					c0.2,0,0.4,0,0.4,0h2V12.8l0,0h0.6c0.5,0,1-0.2,1.4-0.6c0.4-0.4,0.6-0.8,0.6-1.4V9.9h-2.7l0,0V8.8c0-0.5,0.1-0.8,0.3-1
					c0.2-0.1,0.5-0.2,0.8-0.2c0.2,0,0.3-0.1,0.4-0.1s0.5-0.2,0.7-0.5c0.2-0.2,0.3-0.3,0.3-0.5C87.5,6.3,87.5,6,87.5,6V4.3
					c-0.3,0-0.6,0-1,0c-0.2,0-0.3,0-0.5,0S85.6,4.3,85.4,4.3z"/>
			</g>
			<g>
				<path class="st0" d="M94.4,25.1c-2.4,0-4.3-0.7-5.7-2.2c-1.4-1.4-2-3.5-2-6.1c0-2.5,0.7-4.5,2-6c1.4-1.5,3.3-2.2,5.7-2.2
					c2.5,0,4.5,0.7,6,2.2c1.4,1.5,2,3.5,2,6.1v0.7c0,0.2,0,0.3-0.1,0.4l0,0h-11c0,1.2,0.4,2.1,0.9,2.7s1.4,0.9,2.5,0.9
					c0.7,0,1.3-0.1,1.8-0.4c0.1,0,0.2-0.1,0.3-0.2l0.3-0.3c0-0.1,0.2-0.3,0.5-0.5s0.7-0.3,1.2-0.3h3.2l0,0l0,0
					c-0.5,1.7-1.4,3-2.7,3.8C98.1,24.6,96.4,25.1,94.4,25.1z M94.4,8.6c-2.4,0-4.3,0.7-5.6,2.2c-1.3,1.4-2,3.4-2,5.9
					c0,2.6,0.7,4.7,2,6.1c1.3,1.5,3.2,2.2,5.6,2.2c2,0,3.6-0.5,4.9-1.4s2.2-2.1,2.6-3.7h-3.1c-0.5,0-0.9,0.1-1.2,0.3
					c-0.3,0.2-0.4,0.3-0.5,0.5l0,0L96.9,21c-0.1,0.1-0.2,0.2-0.4,0.2c-0.5,0.3-1.1,0.4-1.9,0.4c-1.1,0-2-0.3-2.5-1
					c-0.6-0.6-0.9-1.5-1-2.8l0,0l0,0h11c0-0.1,0.1-0.2,0.1-0.4v-0.7c0-2.6-0.7-4.6-2-6.1C98.9,9.4,96.9,8.6,94.4,8.6z M97.7,15.3
					h-6.5l0,0l0,0c0-1,0.4-1.8,1-2.4s1.4-0.8,2.3-0.8c1,0,1.8,0.3,2.4,0.8C97.4,13.4,97.7,14.2,97.7,15.3
					C97.8,15.3,97.8,15.3,97.7,15.3C97.8,15.3,97.8,15.3,97.7,15.3z M91.3,15.2h6.4c-0.1-1-0.4-1.8-0.9-2.3s-1.3-0.8-2.3-0.8
					c-0.9,0-1.7,0.3-2.3,0.8C91.7,13.4,91.3,14.2,91.3,15.2z"/>
			</g>
			<g>
				<path class="st0" d="M110.3,25.1c-2.4,0-4.3-0.7-5.7-2.2c-1.4-1.4-2-3.5-2-6.1c0-2.5,0.7-4.5,2-6c1.4-1.5,3.3-2.2,5.7-2.2
					c2.5,0,4.5,0.7,6,2.2c1.4,1.5,2,3.5,2,6.1v0.7c0,0.2,0,0.3-0.1,0.4l0,0h-11c0,1.2,0.4,2.1,0.9,2.7s1.4,0.9,2.5,0.9
					c0.7,0,1.3-0.1,1.8-0.4c0.1,0,0.2-0.1,0.3-0.2l0.3-0.3c0-0.1,0.2-0.3,0.5-0.5s0.7-0.3,1.2-0.3h3.2l0,0l0,0
					c-0.5,1.7-1.4,3-2.7,3.8C114,24.6,112.3,25.1,110.3,25.1z M110.3,8.6c-2.4,0-4.3,0.7-5.6,2.2c-1.3,1.4-2,3.4-2,5.9
					c0,2.6,0.7,4.7,2,6.1c1.3,1.5,3.2,2.2,5.6,2.2c2,0,3.6-0.5,4.9-1.4s2.2-2.1,2.6-3.7h-3.1c-0.5,0-0.9,0.1-1.2,0.3
					c-0.3,0.2-0.4,0.3-0.5,0.5l0,0l-0.4,0.3c-0.1,0.1-0.2,0.2-0.4,0.2c-0.5,0.3-1.1,0.4-1.9,0.4c-1.1,0-2-0.3-2.5-1
					c-0.6-0.6-0.9-1.5-1-2.8l0,0l0,0h11c0-0.1,0-0.2,0-0.4v-0.7c0-2.6-0.7-4.6-2-6.1C114.8,9.4,112.8,8.6,110.3,8.6z M113.7,15.3
					h-6.5l0,0l0,0c0-1,0.4-1.8,1-2.4s1.4-0.8,2.3-0.8c1,0,1.8,0.3,2.4,0.8C113.3,13.4,113.6,14.2,113.7,15.3L113.7,15.3L113.7,15.3z
					 M107.2,15.2h6.4c-0.1-1-0.4-1.8-0.9-2.3s-1.3-0.8-2.3-0.8c-0.9,0-1.7,0.3-2.3,0.8C107.6,13.4,107.3,14.2,107.2,15.2z"/>
			</g>
			<g>
				<path class="st0" d="M126.2,25.1c-1.1,0-2.2-0.2-3.3-0.5c-1.1-0.3-1.9-0.9-2.6-1.6c-1.2-1.5-1.9-3.5-1.9-6s0.6-4.5,1.9-6
					s2.9-2.3,4.9-2.3c1.1,0,2,0.2,2.8,0.6c0.8,0.5,1.5,1,2,1.7V4.3l0,0h2.2c0.6,0,1.1,0.2,1.6,0.6c0.4,0.4,0.6,0.9,0.6,1.4v11.6
					c0,2.8-0.9,4.7-2.6,5.7C130.2,24.6,128.2,25.1,126.2,25.1z M125.3,8.6c-2,0-3.6,0.8-4.9,2.3c-1.2,1.5-1.8,3.5-1.8,6
					s0.6,4.5,1.8,6c0.6,0.7,1.5,1.3,2.5,1.6c1.1,0.3,2.1,0.5,3.2,0.5c2,0,3.9-0.5,5.6-1.5s2.6-2.9,2.6-5.7V6.3c0-0.5-0.2-1-0.6-1.4
					c-0.4-0.4-0.9-0.6-1.5-0.6h-2.1V11l0,0l0,0c-0.5-0.7-1.2-1.4-2-1.8C127.3,8.8,126.4,8.6,125.3,8.6z M126.6,21.7
					c-1.2,0-2.1-0.4-2.8-1.3c-0.6-0.8-1-2.1-1-3.6c0-1.4,0.3-2.6,1-3.3c0.6-0.8,1.5-1.3,2.6-1.3c1.2,0,2.1,0.4,2.8,1.2
					c0.6,0.8,1,2,1,3.4c0,1.6-0.3,2.8-0.9,3.6C128.6,21.2,127.7,21.7,126.6,21.7z M126.5,12.2c-1.1,0-2,0.4-2.6,1.2
					s-0.9,1.9-0.9,3.3c0,1.6,0.3,2.8,0.9,3.6c0.6,0.8,1.5,1.2,2.7,1.2c1.1,0,2-0.4,2.6-1.2c0.6-0.8,0.9-2,0.9-3.6
					c0-1.4-0.3-2.5-0.9-3.4C128.5,12.6,127.6,12.2,126.5,12.2z"/>
			</g>
			<g>
				<path class="st0" d="M141.9,25.1c-2.4,0-4.2-0.5-5.4-1.4s-1.9-2.3-1.9-4v-0.2l0,0h4.3l0,0c0,0.8,0.4,1.4,0.9,1.8
					c0.6,0.4,1.5,0.6,2.5,0.6c0.8,0,1.4-0.1,2-0.4c0.5-0.3,0.7-0.6,0.7-1.1c0-0.6-0.8-1.1-2.6-1.6c-0.3-0.1-0.7-0.2-1-0.2
					c-0.4-0.1-0.7-0.2-1-0.2c-2.1-0.6-3.5-1-4.3-1.7c-0.9-0.7-1.3-1.7-1.3-2.9c0-1.5,0.6-2.8,1.9-3.8c1.3-0.9,3-1.4,5-1.4
					c2.2,0,4,0.5,5.3,1.4c1.2,1,1.9,2.3,2,3.9l0,0l0,0h-2.7c-0.8,0-1.4-0.3-1.9-1l-0.1-0.1l-0.1-0.1l-0.1-0.1l-0.1-0.1
					c-0.5-0.3-1.2-0.5-2.1-0.5c-0.8,0-1.5,0.1-1.9,0.4c-0.4,0.2-0.6,0.6-0.6,1c0,0.6,1,1.1,3.1,1.6c0.2,0.1,1.1,0.2,1.4,0.3h0.1
					c2.1,0.5,3.6,1,4.5,1.7c0.8,0.7,1.2,1.7,1.2,2.9c0,1.7-0.7,3.1-2.1,4.1C146.4,24.7,144.5,25.1,141.9,25.1z M134.7,19.6v0.1
					c0,1.7,0.6,3.1,1.8,4s3,1.4,5.4,1.4c2.5,0,4.4-0.4,5.7-1.3s2-2.3,2-4c0-1.2-0.4-2.1-1.2-2.8c-0.9-0.7-2.3-1.2-4.4-1.7h-0.1
					c-0.3-0.1-1.1-0.2-1.4-0.3c-2.2-0.4-3.2-0.9-3.2-1.6c0-0.5,0.2-0.9,0.6-1.1c0.4-0.2,1.1-0.4,1.9-0.4c0.9,0,1.6,0.2,2.1,0.5
					l0.1,0.1l0.1,0.1l0.1,0.1l0.1,0.1l0,0c0.4,0.7,1,1,1.8,1h2.7c-0.1-1.5-0.8-2.8-2-3.8c-1.3-0.9-3.1-1.4-5.3-1.4
					c-2,0-3.7,0.5-4.9,1.4c-1.2,1-1.8,2.2-1.8,3.7c0,1.2,0.4,2.1,1.3,2.8c0.8,0.7,2.2,1.2,4.2,1.7c0.2,0.1,0.6,0.1,1,0.2
					c0.3,0.1,0.7,0.2,1,0.2c1.9,0.5,2.7,1,2.7,1.6c0,0.5-0.3,0.9-0.8,1.2c-0.6,0.3-1.2,0.4-2,0.4c-1.1,0-1.9-0.2-2.6-0.6
					c-0.6-0.4-0.9-1-1-1.8h-3.9V19.6z"/>
			</g>
		</g>
		<g class="st8">
			<path class="st9" d="M63.7,17c-0.2-0.2-0.4-0.3-0.7-0.4c0.5,0.6,0.8,1.4,0.8,2.4c0,1.7-0.7,3-2,3.9c-1.2,0.8-3.1,1.3-5.5,1.3
				c-2,0-3.6-0.3-4.7-1c0.2,0.2,0.3,0.3,0.5,0.5c1.1,0.9,2.9,1.3,5.2,1.3c2.5,0,4.3-0.4,5.5-1.3c1.3-0.9,2-2.2,2-3.9
				C64.9,18.6,64.5,17.6,63.7,17z"/>
		</g>
		<g class="st8">
			<path class="st9" d="M148.3,17c-0.2-0.2-0.4-0.3-0.7-0.4c0.5,0.6,0.8,1.4,0.8,2.4c0,1.7-0.7,3-2,3.9c-1.2,0.8-3.1,1.3-5.5,1.3
				c-2,0-3.6-0.3-4.7-1c0.2,0.2,0.3,0.3,0.5,0.5c1.1,0.9,2.9,1.3,5.2,1.3c2.5,0,4.3-0.4,5.5-1.3c1.3-0.9,2-2.2,2-3.9
				C149.5,18.6,149.1,17.6,148.3,17z"/>
		</g>
		<path class="st10" d="M77.9,10c0.5,0.6,0.8,1.4,0.8,2.3v5.3c0,1.5-0.3,2.8-0.9,3.6c-0.6,0.9-1.3,1.5-2.1,1.9
			c-0.9,0.4-1.8,0.7-2.8,0.8c-1,0.1-1.8,0.1-2.6,0.1c-1.5,0-2.8-0.4-3.9-1.1c0.2,0.3,0.5,0.6,0.8,0.8c1.1,0.8,2.4,1.1,3.9,1.1
			c0.7,0,1.6,0,2.6-0.1s1.9-0.4,2.8-0.8c0.8-0.4,1.5-1,2.1-1.9s0.9-2.1,0.9-3.6v-5.3C79.6,11.8,79,10.7,77.9,10z"/>
		<g class="st8">
			<path class="st9" d="M86.5,10c0,0.5-0.2,1-0.6,1.3s-1,0.5-1.5,0.5h-0.6V24h-1.9c0,0-0.2,0-0.4,0c-0.2,0-0.4-0.1-0.5-0.1
				c0,0-0.1,0-0.1-0.1c0.1,0.1,0.1,0.2,0.2,0.3c0.2,0.2,0.5,0.4,0.7,0.5s0.4,0.1,0.5,0.1c0.2,0,0.4,0,0.4,0h1.9V12.6h0.8
				c0.5,0,1-0.2,1.3-0.5c0.4-0.3,0.6-0.8,0.6-1.3V9.9L86.5,10L86.5,10z"/>
			<path class="st9" d="M86.4,4.4v0.8c0,0,0,0.3-0.1,0.6C86.2,6,86.1,6.1,86,6.3c-0.2,0.2-0.5,0.4-0.7,0.4c-0.2,0.1-0.3,0.1-0.4,0.1
				c-0.3,0-0.6,0.1-0.7,0.2c-0.2,0.1-0.3,0.4-0.3,0.9V10h0.8V8.6c0-0.4,0.1-0.7,0.3-0.9c0.2-0.1,0.4-0.2,0.7-0.2c0,0,0.2,0,0.4-0.1
				c0.2-0.1,0.5-0.2,0.7-0.4c0.1-0.2,0.2-0.3,0.3-0.5C87.2,6.3,87.2,6,87.2,6V4.4C87,4.4,86.7,4.4,86.4,4.4z"/>
		</g>
		<g class="st8">
			<path class="st9" d="M100.1,10.7c-0.2-0.2-0.4-0.4-0.7-0.6c1.2,1.4,1.8,3.4,1.8,5.8c0,0.2,0,0.3,0,0.4s0,0.2,0,0.2
				c0,0.2,0,0.3-0.1,0.4h-8.8c-0.5,0-1.1,0.5-1.1,0.8H102c0-0.1,0.1-0.2,0.1-0.4c0,0,0-0.1,0-0.2s0-0.3,0-0.4
				C102.1,14.1,101.4,12.1,100.1,10.7z"/>
			<path class="st9" d="M100.6,20c-0.5,1.1-1.2,2-2.2,2.7c-1.3,0.9-2.9,1.3-4.8,1.3s-3.5-0.5-4.7-1.4l0.1,0.1
				c1.3,1.4,3.1,2.2,5.5,2.2c1.9,0,3.5-0.4,4.8-1.3c1.2-0.8,2-2,2.5-3.5h-1.2V20z"/>
		</g>
		<g class="st8">
			<path class="st9" d="M116.1,10.7c-0.2-0.2-0.4-0.4-0.7-0.6c1.2,1.4,1.8,3.4,1.8,5.8c0,0.2,0,0.3,0,0.4s0,0.2,0,0.2
				c0,0.2,0,0.3-0.1,0.4h-8.8c-0.5,0-1.1,0.5-1.1,0.8h10.7c0-0.1,0.1-0.2,0.1-0.4c0,0,0-0.1,0-0.2s0-0.3,0-0.4
				C118.1,14.1,117.5,12.1,116.1,10.7z"/>
			<path class="st9" d="M116.7,20c-0.5,1.1-1.2,2-2.2,2.7c-1.3,0.9-2.9,1.3-4.8,1.3s-3.5-0.5-4.7-1.4l0.1,0.1
				c1.3,1.4,3.1,2.2,5.5,2.2c1.9,0,3.5-0.4,4.8-1.3c1.2-0.8,2-2,2.5-3.5h-1.2V20z"/>
		</g>
		<g class="st8">
			<path class="st9" d="M133.6,5.1c-0.2-0.2-0.3-0.3-0.5-0.4c0.2,0.3,0.3,0.6,0.3,0.9V17c0,2.8-0.9,4.6-2.6,5.6
				c-1.7,1-3.5,1.5-5.5,1.5c-1.1,0-2.1-0.2-3.2-0.5c-0.6-0.2-1.2-0.5-1.6-0.8l0,0c0.6,0.7,1.5,1.3,2.5,1.6c1,0.3,2.1,0.5,3.2,0.5
				c2,0,3.8-0.5,5.5-1.5c1.7-1,2.6-2.8,2.6-5.6V6.5C134.2,6,134,5.5,133.6,5.1z"/>
		</g>
	</g>
	<g>
		
			<radialGradient id="SVGID_00000177447783265649623850000011692286059683304876_" cx="303.4711" cy="89.1698" r="4.9411" gradientTransform="matrix(1.7323 0 0 -1.6163 -518.6277 165.1251)" gradientUnits="userSpaceOnUse">
			<stop  offset="0" style="stop-color:#52AE32"/>
			<stop  offset="0.6233" style="stop-color:#1D9636"/>
			<stop  offset="1" style="stop-color:#008D36"/>
		</radialGradient>
		<path style="fill:url(#SVGID_00000177447783265649623850000011692286059683304876_);" d="M14.2,21c0,3.6-3.2,6.6-7.1,6.6
			S0,24.6,0,21s3.2-6.6,7.1-6.6S14.2,17.4,14.2,21z"/>
		
			<radialGradient id="SVGID_00000129183102783925309590000004246075105794592390_" cx="323.9853" cy="88.7287" r="3.7485" gradientTransform="matrix(1.7323 0 0 -1.6163 -518.6277 165.1251)" gradientUnits="userSpaceOnUse">
			<stop  offset="0" style="stop-color:#52AE32"/>
			<stop  offset="0.6233" style="stop-color:#1D9636"/>
			<stop  offset="1" style="stop-color:#008D36"/>
		</radialGradient>
		<path style="fill:url(#SVGID_00000129183102783925309590000004246075105794592390_);" d="M47.3,21.7c0,2.4-2.1,4.3-4.7,4.3
			S38,24.1,38,21.7s2.1-4.3,4.7-4.3S47.3,19.3,47.3,21.7z"/>
		
			<radialGradient id="SVGID_00000094587326857141429380000006757645774071035268_" cx="309.525" cy="86.7131" r="9.3521" gradientTransform="matrix(1.7323 0 0 -1.6163 -518.6277 165.1251)" gradientUnits="userSpaceOnUse">
			<stop  offset="0" style="stop-color:#008D36"/>
			<stop  offset="1" style="stop-color:#006633"/>
		</radialGradient>
		<path style="fill:url(#SVGID_00000094587326857141429380000006757645774071035268_);" d="M7,22.2c0-5.7,6.6-10.3,14.8-10.3
			s14.8,4.6,14.8,10.3S30,32.5,21.8,32.5C13.7,32.5,7,27.9,7,22.2z"/>
		
			<radialGradient id="SVGID_00000087403198268679810060000014299971198640363947_" cx="318.5068" cy="95.9006" r="9.9131" gradientTransform="matrix(1.7323 0 0 -1.6163 -518.6277 165.1251)" gradientUnits="userSpaceOnUse">
			<stop  offset="0" style="stop-color:#008D36"/>
			<stop  offset="1" style="stop-color:#006633"/>
		</radialGradient>
		<path style="fill:url(#SVGID_00000087403198268679810060000014299971198640363947_);" d="M42.6,10.3c0,5.7-6.6,10.3-14.8,10.3
			S13,16,13,10.3C13,4.6,19.6,0,27.8,0S42.6,4.6,42.6,10.3z"/>
		<path class="st15" d="M13.7,13.6c1.9,4.1,7.5,7.1,14.1,7.1c3,0,5.8-0.6,8.1-1.7c-1.9-4.1-7.5-7.1-14.1-7.1
			C18.8,11.9,16,12.5,13.7,13.6z"/>
		<path class="st16" d="M7.1,22.2c0,1.9,0.7,3.6,2,5.2c3-0.8,5.2-3.3,5.2-6.4c0-2.4-1.4-4.5-3.4-5.6C8.5,17.2,7.1,19.6,7.1,22.2z"/>
		
			<radialGradient id="SVGID_00000029022960309269639350000010127653497650272932_" cx="304.5623" cy="95.5379" r="2.3871" gradientTransform="matrix(1.7323 0 0 -1.6163 -518.6277 165.1251)" gradientUnits="userSpaceOnUse">
			<stop  offset="0" style="stop-color:#52AE32"/>
			<stop  offset="0.6233" style="stop-color:#1D9636"/>
			<stop  offset="1" style="stop-color:#008D36"/>
		</radialGradient>
		<path style="fill:url(#SVGID_00000029022960309269639350000010127653497650272932_);" d="M11.7,10.7c0,1.4-1.2,2.6-2.8,2.6
			c-1.5,0-2.8-1.2-2.8-2.6s1.2-2.6,2.8-2.6C10.5,8.1,11.7,9.3,11.7,10.7z"/>
		<path class="st18" d="M18.8,12.1c0-5.1,5.9-9.2,13.2-9.2c3.1,0,6,0.8,8.3,2c-2.6-2.7-7.1-4.5-12.1-4.5c-8.1,0-14.6,4.6-14.6,10.2
			c0,5.2,5.5,9.5,12.7,10.1c0.2,0,1,0.1,1.9,0c1.1,0,1.3-0.1,1.6-0.1c-0.3,0-0.8,0.1-1.7,0c-0.9-0.1-1.5-0.3-1.6-0.3
			C21.8,18.9,18.8,15.8,18.8,12.1z"/>
		
			<linearGradient id="SVGID_00000067936927398522715300000008440468512068599966_" gradientUnits="userSpaceOnUse" x1="25.9186" y1="14.4505" x2="27.0247" y2="34.4692" gradientTransform="matrix(1 0 0 -1 0 33.2756)">
			<stop  offset="0" style="stop-color:#3AAA35"/>
			<stop  offset="1" style="stop-color:#008D36"/>
		</linearGradient>
		<path style="fill:url(#SVGID_00000067936927398522715300000008440468512068599966_);" d="M18.3,11.9c0-5.2,6-9.3,13.4-9.3
			c3.2,0,6.1,0.8,8.4,2.1C37.4,1.8,32.9,0,27.8,0C19.6,0,13,4.6,13,10.3c0,5.3,5.6,9.6,12.9,10.3c0.2,0,1,0.1,2,0.1
			c1.2,0,1.3,0,1.5-0.1c-0.3,0-0.8,0-1.7,0c-0.9-0.1-1.6-0.3-1.6-0.3C21.4,18.8,18.3,15.7,18.3,11.9z"/>
		<g class="st20">
			<path class="st9" d="M15.4,11c0-5.6,6.5-10.2,14.6-10.2c1.4,0,2.7,0.1,4,0.4c-1.9-0.6-4-1-6.2-1c-8,0-14.5,4.5-14.5,10.1
				c0,4.3,3.9,8,9.4,9.5C18.3,18.1,15.4,14.8,15.4,11z"/>
		</g>
		<path class="st18" d="M30.7,20.5c0,5.1-5.9,9.2-13.2,9.2c-3.1,0-6-0.8-8.3-2c2.6,2.7,7.1,4.5,12.1,4.5C29.5,32.2,36,27.6,36,22
			c0-5.2-5.5-9.5-12.7-10.1c-0.2,0-0.9-0.1-1.8,0c-1.1,0-1.1,0-1.4,0.1c0.3,0,0.5-0.1,1.4,0s1.5,0.3,1.6,0.3
			C27.7,13.7,30.7,16.8,30.7,20.5z"/>
		
			<linearGradient id="SVGID_00000101080334093880340480000015463366639526723774_" gradientUnits="userSpaceOnUse" x1="23.3466" y1="17.8135" x2="22.7384" y2="-1.7576" gradientTransform="matrix(1 0 0 -1 0 33.2756)">
			<stop  offset="0" style="stop-color:#3AAA35"/>
			<stop  offset="1" style="stop-color:#008D36"/>
		</linearGradient>
		<path style="fill:url(#SVGID_00000101080334093880340480000015463366639526723774_);" d="M31.3,20.6c0,5.2-6,9.3-13.4,9.3
			c-3.2,0-6.1-0.8-8.4-2.1c2.7,2.8,7.2,4.6,12.3,4.6c8.2,0,14.8-4.6,14.8-10.3c0-5.3-5.6-9.6-12.9-10.3c-0.2,0-1-0.1-2-0.1
			c-1.2,0-1.3,0-1.5,0.1c0.3,0,0.8,0,1.7,0c0.9,0.1,1.6,0.3,1.6,0.3C28.2,13.8,31.3,16.9,31.3,20.6z"/>
		<g class="st20">
			<path class="st9" d="M34.2,21.6c0,5.6-6.5,10.2-14.6,10.2c-1.4,0-2.7-0.1-4-0.4c1.9,0.6,4,1,6.2,1c8,0,14.5-4.5,14.5-10.1
				c0-4.3-3.9-8-9.4-9.5C31.2,14.5,34.2,17.8,34.2,21.6z"/>
		</g>
		<path class="st22" d="M3.6,26.3C1,24,1,20.1,3.6,17.8c2.5-2.4,6.6-2.4,9.2,0c0.3,0.3,0.6,0.6,0.8,0.9c-0.3-0.8-0.8-1.5-1.5-2.2
			C9.4,14,5,14,2.3,16.5s-2.7,6.6,0,9.1C3,26.2,3.8,26.7,4.6,27C4.2,26.8,3.9,26.6,3.6,26.3z"/>
		<path class="st22" d="M6.4,11.2C6.4,10,7.6,9,9,9s2.5,1,2.5,2.2c0,0.1,0,0.3,0,0.4c0.1-0.3,0.2-0.6,0.2-0.9c0-1.3-1.2-2.4-2.7-2.4
			s-2.7,1.1-2.7,2.4c0,0.3,0.1,0.6,0.2,0.9C6.5,11.5,6.4,11.3,6.4,11.2z"/>
		<path class="st22" d="M38.9,19.6c1.6-1.5,4.3-1.5,6,0c1.6,1.5,1.6,4,0,5.6c-0.2,0.2-0.4,0.3-0.6,0.5c0.5-0.2,1.1-0.5,1.5-0.9
			c1.8-1.6,1.8-4.3,0-5.9c-1.8-1.6-4.6-1.6-6.4,0c-0.4,0.4-0.8,0.9-1,1.4C38.6,19.9,38.7,19.8,38.9,19.6z"/>
		<path class="st10" d="M46.4,19.9c0,3-2.6,5.4-5.7,5.4c-0.1,0-0.2,0-0.2,0c0.7,0.4,1.5,0.6,2.4,0.6c2.4,0,4.4-1.9,4.4-4.1
			c0-0.9-0.3-1.7-0.8-2.4C46.4,19.6,46.4,19.7,46.4,19.9z"/>
		<path class="st10" d="M10.2,26.3c-4.9,0-8.9-3.7-8.9-8.3c0-0.1,0-0.2,0-0.4c-0.7,1-1.1,2.2-1.1,3.4c0,3.5,3.1,6.4,6.9,6.4
			c1.5,0,2.9-0.4,4-1.2C10.8,26.3,10.5,26.3,10.2,26.3z"/>
		<path class="st10" d="M8.2,12.8c-1.3-1.2-1.3-3.2,0-4.4l0.1-0.1C7.8,8.5,7.4,8.7,7,9c-1,0.9-1,2.4,0,3.4c0.4,0.4,0.9,0.6,1.4,0.7
			C8.3,13,8.3,12.9,8.2,12.8z"/>
		<path class="st23" d="M29.2,3.4c5.4,0,10.2,1.9,13,4.8c-1.4-4.6-7.3-8-14.3-8c-8.1,0-14.6,4.6-14.6,10.2c0,0.7,0.1,1.5,0.3,2.2
			C14.9,7.4,21.4,3.4,29.2,3.4z"/>
		<path class="st23" d="M20.5,29.3c-5.4,0-10.2-1.9-13-4.8c1.4,4.6,7.3,8,14.2,8c8.1,0,14.6-4.6,14.6-10.2c0-0.7-0.1-1.5-0.3-2.2
			C34.7,25.3,28.2,29.3,20.5,29.3z"/>
	</g>
</g>
</svg>
